REM DIRINDEX 1\6,1\2\7,1\2\8,1\2\9,1\3\10,1\3\11,1\4\12,1\4\13,1\4\14,1\5\15,1\5\16,1\5\17
REM DIRNAME folder01,folder02,folder03,folder04,folder05,folder06,folder07,folder08,folder09,folder10,folder11,folder12,folder13,folder14,folder15,folder16,folder17
TITLE ""
FILE "3Q_j_0997-1012.mp3" MP3
  TRACK 01 AUDIO
    TITLE "12:cjc041_0290"
    INDEX 01 00:00:00
  TRACK 02 AUDIO
    TITLE "0:"
    INDEX 01 00:01:64
  TRACK 03 AUDIO
    TITLE "13:cjc041_0291"
    INDEX 01 00:02:43
  TRACK 04 AUDIO
    TITLE "0:"
    INDEX 01 00:04:13
  TRACK 05 AUDIO
    TITLE "14:cjc041_0292"
    INDEX 01 00:04:60
  TRACK 06 AUDIO
    TITLE "0:"
    INDEX 01 00:09:04
  TRACK 07 AUDIO
    TITLE "12:cjc041_0293"
    INDEX 01 00:09:57
  TRACK 08 AUDIO
    TITLE "0:"
    INDEX 01 00:11:37
  TRACK 09 AUDIO
    TITLE "13:cjc041_0294"
    INDEX 01 00:12:11
  TRACK 10 AUDIO
    TITLE "0:"
    INDEX 01 00:14:31
  TRACK 11 AUDIO
    TITLE "14:cjc041_0295"
    INDEX 01 00:15:11
  TRACK 12 AUDIO
    TITLE "0:"
    INDEX 01 00:17:67
  TRACK 13 AUDIO
    TITLE "12:cjc041_0296"
    INDEX 01 00:18:48
  TRACK 14 AUDIO
    TITLE "0:"
    INDEX 01 00:20:63
  TRACK 15 AUDIO
    TITLE "13:cjc041_0297"
    INDEX 01 00:21:51
  TRACK 16 AUDIO
    TITLE "0:"
    INDEX 01 00:24:72
  TRACK 17 AUDIO
    TITLE "14:cjc041_0298"
    INDEX 01 00:25:50
  TRACK 18 AUDIO
    TITLE "0:"
    INDEX 01 00:28:72
  TRACK 19 AUDIO
    TITLE "12:cjc041_0299"
    INDEX 01 00:29:52
  TRACK 20 AUDIO
    TITLE "0:"
    INDEX 01 00:31:12
  TRACK 21 AUDIO
    TITLE "13:cjc041_0300"
    INDEX 01 00:31:67
  TRACK 22 AUDIO
    TITLE "0:"
    INDEX 01 00:32:72
  TRACK 23 AUDIO
    TITLE "14:cjc041_0301"
    INDEX 01 00:33:58
  TRACK 24 AUDIO
    TITLE "0:"
    INDEX 01 00:37:24
  TRACK 25 AUDIO
    TITLE "12:cjc041_0302"
    INDEX 01 00:38:06
  TRACK 26 AUDIO
    TITLE "0:"
    INDEX 01 00:39:45
  TRACK 27 AUDIO
    TITLE "13:cjc041_0303"
    INDEX 01 00:40:17
  TRACK 28 AUDIO
    TITLE "0:"
    INDEX 01 00:41:51
  TRACK 29 AUDIO
    TITLE "14:cjc041_0304"
    INDEX 01 00:42:33
  TRACK 30 AUDIO
    TITLE "0:"
    INDEX 01 00:46:45
  TRACK 31 AUDIO
    TITLE "12:cjc041_0305"
    INDEX 01 00:47:27
  TRACK 32 AUDIO
    TITLE "0:"
    INDEX 01 00:49:43
  TRACK 33 AUDIO
    TITLE "13:cjc041_0306"
    INDEX 01 00:50:19
  TRACK 34 AUDIO
    TITLE "0:"
    INDEX 01 00:52:39
  TRACK 35 AUDIO
    TITLE "14:cjc041_0307"
    INDEX 01 00:53:19
  TRACK 36 AUDIO
    TITLE "0:"
    INDEX 01 00:55:57
  TRACK 37 AUDIO
    TITLE "12:cjc041_0308"
    INDEX 01 00:56:39
  TRACK 38 AUDIO
    TITLE "0:"
    INDEX 01 00:58:46
  TRACK 39 AUDIO
    TITLE "13:cjc041_0309"
    INDEX 01 00:59:28
  TRACK 40 AUDIO
    TITLE "0:"
    INDEX 01 01:01:42
  TRACK 41 AUDIO
    TITLE "14:cjc041_0310"
    INDEX 01 01:02:20
  TRACK 42 AUDIO
    TITLE "0:"
    INDEX 01 01:06:12
  TRACK 43 AUDIO
    TITLE "12:cjc041_0311"
    INDEX 01 01:06:69
  TRACK 44 AUDIO
    TITLE "0:"
    INDEX 01 01:08:42
  TRACK 45 AUDIO
    TITLE "13:cjc041_0312"
    INDEX 01 01:09:24
  TRACK 46 AUDIO
    TITLE "0:"
    INDEX 01 01:11:45
  TRACK 47 AUDIO
    TITLE "14:cjc041_0313"
    INDEX 01 01:12:28
  TRACK 48 AUDIO
    TITLE "0:"
    INDEX 01 01:16:18
  TRACK 49 AUDIO
    TITLE "12:cjc041_0314"
    INDEX 01 01:17:00
  TRACK 50 AUDIO
    TITLE "0:"
    INDEX 01 01:18:33
  TRACK 51 AUDIO
    TITLE "13:cjc041_0315"
    INDEX 01 01:19:07
  TRACK 52 AUDIO
    TITLE "0:"
    INDEX 01 01:21:51
  TRACK 53 AUDIO
    TITLE "14:cjc041_0316"
    INDEX 01 01:22:37
  TRACK 54 AUDIO
    TITLE "0:"
    INDEX 01 01:24:45
  TRACK 55 AUDIO
    TITLE "12:cjc041_0317"
    INDEX 01 01:25:25
  TRACK 56 AUDIO
    TITLE "0:"
    INDEX 01 01:27:12
  TRACK 57 AUDIO
    TITLE "13:cjc041_0318"
    INDEX 01 01:27:61
  TRACK 58 AUDIO
    TITLE "0:"
    INDEX 01 01:29:43
  TRACK 59 AUDIO
    TITLE "14:cjc041_0319"
    INDEX 01 01:30:24
  TRACK 60 AUDIO
    TITLE "0:"
    INDEX 01 01:33:34
  TRACK 61 AUDIO
    TITLE "12:cjc041_0320"
    INDEX 01 01:34:12
  TRACK 62 AUDIO
    TITLE "0:"
    INDEX 01 01:35:51
  TRACK 63 AUDIO
    TITLE "13:cjc041_0321"
    INDEX 01 01:36:29
  TRACK 64 AUDIO
    TITLE "0:"
    INDEX 01 01:39:00
  TRACK 65 AUDIO
    TITLE "14:cjc041_0322"
    INDEX 01 01:39:55
  TRACK 66 AUDIO
    TITLE "0:"
    INDEX 01 01:42:28
  TRACK 67 AUDIO
    TITLE "12:cjc041_0323"
    INDEX 01 01:43:09
  TRACK 68 AUDIO
    TITLE "0:"
    INDEX 01 01:44:54
  TRACK 69 AUDIO
    TITLE "13:cjc041_0324"
    INDEX 01 01:45:34
  TRACK 70 AUDIO
    TITLE "0:"
    INDEX 01 01:48:69
  TRACK 71 AUDIO
    TITLE "14:cjc041_0325"
    INDEX 01 01:49:47
  TRACK 72 AUDIO
    TITLE "0:"
    INDEX 01 01:53:27
  TRACK 73 AUDIO
    TITLE "12:cjc041_0326"
    INDEX 01 01:54:09
  TRACK 74 AUDIO
    TITLE "0:"
    INDEX 01 01:55:30
  TRACK 75 AUDIO
    TITLE "13:cjc041_0327"
    INDEX 01 01:56:10
  TRACK 76 AUDIO
    TITLE "0:"
    INDEX 01 01:57:08
  TRACK 77 AUDIO
    TITLE "14:cjc041_0328"
    INDEX 01 01:57:60
  TRACK 78 AUDIO
    TITLE "0:"
    INDEX 01 02:01:07
  TRACK 79 AUDIO
    TITLE "12:cjc041_0329"
    INDEX 01 02:01:58
  TRACK 80 AUDIO
    TITLE "0:"
    INDEX 01 02:03:36
  TRACK 81 AUDIO
    TITLE "13:cjc041_0330"
    INDEX 01 02:04:12
  TRACK 82 AUDIO
    TITLE "0:"
    INDEX 01 02:05:46
  TRACK 83 AUDIO
    TITLE "14:cjc041_0331"
    INDEX 01 02:06:22
  TRACK 84 AUDIO
    TITLE "0:"
    INDEX 01 02:09:54
  TRACK 85 AUDIO
    TITLE "12:cjc041_0332"
    INDEX 01 02:10:34
  TRACK 86 AUDIO
    TITLE "0:"
    INDEX 01 02:12:07
  TRACK 87 AUDIO
    TITLE "13:cjc041_0333"
    INDEX 01 02:12:58
  TRACK 88 AUDIO
    TITLE "0:"
    INDEX 01 02:14:49
  TRACK 89 AUDIO
    TITLE "14:cjc041_0334"
    INDEX 01 02:15:23
  TRACK 90 AUDIO
    TITLE "0:"
    INDEX 01 02:19:03
  TRACK 91 AUDIO
    TITLE "12:cjc041_0335"
    INDEX 01 02:19:64
  TRACK 92 AUDIO
    TITLE "0:"
    INDEX 01 02:21:61
  TRACK 93 AUDIO
    TITLE "13:cjc041_0336"
    INDEX 01 02:22:39
  TRACK 94 AUDIO
    TITLE "0:"
    INDEX 01 02:24:36
  TRACK 95 AUDIO
    TITLE "14:cjc041_0337"
    INDEX 01 02:25:12
  TRACK 96 AUDIO
    TITLE "0:"
    INDEX 01 02:30:07
